<?xml version="1.0" encoding="utf-8"?>
<!-- Generator: Adobe Illustrator 24.0.1, SVG Export Plug-In . SVG Version: 6.00 Build 0)  -->
<svg version="1.1" id="Layer_1" xmlns="http://www.w3.org/2000/svg" xmlns:xlink="http://www.w3.org/1999/xlink" x="0px" y="0px"
	 viewBox="0 0 3401.57 7086.61" style="enable-background:new 0 0 3401.57 7086.61;" xml:space="preserve">
<style type="text/css">
	.st0{fill:#FFFFFF;}
</style>
<g>
	<rect x="2948.5" y="3344.21" class="st0" width="103.88" height="38.56"/>
	<g>
		<polygon class="st0" points="792.18,3655.94 792.18,3583.29 936.93,3583.29 936.93,3494.8 792.18,3494.8 792.18,3430.9 
			944.58,3430.9 944.58,3342.41 688.4,3342.41 688.4,3430.9 688.41,3430.9 688.41,3494.8 688.4,3494.8 688.4,3583.29 
			688.41,3583.29 688.41,3655.94 688.4,3655.94 688.4,3744.43 951.68,3744.43 951.68,3655.94 		"/>
		<polygon class="st0" points="1208.6,3741.15 1326.93,3741.15 1196.86,3513.91 1323.66,3342.2 1194.76,3342.2 1087.14,3523.68 
			1087.14,3342.2 983.38,3342.2 983.38,3741.15 1087.14,3741.15 1087.14,3624.84 1124.54,3587.62 		"/>
		<path class="st0" d="M629.41,3623.17c-16.39-52.98-49.16-65-49.16-65s68.82-24.03,68.82-102.14
			c0-78.11-61.18-112.52-158.95-112.52s-140.93,8.88-140.93,8.88v387.14h102.14v-147.48c10.29,0,23.66,0,39.87,0
			c41.51,0,65,149.67,65,149.67h109.24C665.46,3741.7,645.79,3676.15,629.41,3623.17z M496.13,3517.75c-24.58,0-44.24,0-44.24,0
			h-0.55v-98.87c16.14,0,37.74,0,49.71,0c20.76,0,45.88,12.56,45.88,48.61S520.71,3517.75,496.13,3517.75z"/>
		<path class="st0" d="M1914.12,3506.28v80.84h54.62v74.63c-6.36,0.67-12.84,1.02-19.43,1.02c-93.64,0-131.82-52.93-131.82-118.23
			c0-67.76,50.26-117.74,131.82-117.74c30.01,0,57.93,7.11,81.23,19.34l24.59-86.31c-32.71-12.43-69.23-19.41-107.77-19.41
			c-101.48,0-184.16,48.3-222.08,117.54c11.14,25.88,17.32,54.39,17.32,84.35c0,33.74-7.84,65.65-21.77,94.02
			c29.85,66.22,99.34,111.63,226.54,111.63c44.17,0,85.7-9.04,121.88-24.93v-109.53v-107.24H1914.12z"/>
		<path class="st0" d="M1471.19,3455.92c4.91-1.64,10.1-2.74,15.29-2.79c6.08-0.06,11.81,0.64,16.94,1.69
			c8.06,1.2,15.76,3.51,22.95,6.73c-0.23-7.32-0.75-42.39,10.38-51.58c12.44-10.27,22.85-15.96,22.85-15.96l1.61-6.98
			c0,0-41.42-9.03-58.54-19.01s-29.38-27.16-33.47-28.21s-6.84,8.66-1.44,19.7c4.24,8.68,19.01,18.99,25.13,23.02
			c1.59,1.04,2.27,3.02,1.67,4.82c-0.74,2.21-3.14,3.4-5.34,2.64c-15.62-5.4-71.86-24.82-77.57-26.29
			c-6.63-1.71-9.79,8.81-4.76,12.47c4.05,2.96,39.05,16.01,52.4,20.93c2.89,1.06,4.44,4.2,3.55,7.14c-0.98,3.22-4.47,4.94-7.62,3.74
			c-16.85-6.41-64.9-24.68-70.76-26.63c-7.12-2.37-12.92,12.15-5.59,14.11c6.2,1.66,57.23,20.82,72.76,26.67
			c2.51,0.94,3.83,3.68,3.01,6.23c-0.85,2.66-3.69,4.12-6.34,3.25c-14.84-4.83-59.25-19.24-64.42-20.48
			c-6.22-1.5-11.19,10.36-1.95,14.21c7.61,3.17,47.98,16.63,61.98,21.27c2.68,0.89,4.18,3.72,3.43,6.44
			c-0.79,2.83-3.72,4.47-6.54,3.67c-11.82-3.37-40.35-11.5-44.36-12.56c-5.07-1.33-9,7.46-5.29,11.08
			c3.01,2.93,34.4,12.58,46.21,16.13C1447.25,3464,1458.73,3458.66,1471.19,3455.92z"/>
		<path class="st0" d="M1675.44,3462.59c-0.25-4.22-10.32-3.9-19.21,4.59c-6.99,6.67-12.35,23.86-14.33,30.92
			c-0.51,1.83-2.19,3.08-4.09,3.05c-2.33-0.03-4.19-1.96-4.13-4.29c0.42-16.52,1.91-76,1.58-81.88c-0.38-6.84-11.36-6.66-13.33-0.77
			c-1.59,4.76-3.44,42.07-4.09,56.28c-0.14,3.08-2.66,5.5-5.73,5.54c-3.37,0.04-6.06-2.77-5.87-6.13c1.01-18,3.88-69.33,3.97-75.5
			c0.1-7.5-15.49-8.63-15.14-1.06c0.3,6.41-2.53,60.85-3.4,77.42c-0.14,2.67-2.35,4.76-5.03,4.76c-2.79,0-5.04-2.27-5.02-5.06
			c0.11-15.6,0.41-62.29,0.03-67.6c-0.45-6.38-13.26-7.53-14.13,2.45c-0.72,8.22-1.33,50.77-1.52,65.51
			c-0.04,2.82-2.28,5.11-5.1,5.21c-2.93,0.1-5.39-2.2-5.47-5.13c-0.36-12.29-1.24-41.94-1.45-46.08c-0.27-5.24-9.83-6.32-12.16-1.69
			c-1.76,3.51-1.61,32.43-1.43,46.26c23.18,15.96,38.38,42.66,38.38,72.92c0,3.78-0.26,7.49-0.72,11.14
			c9.08-3.11,39.51-12.66,50.99-5.25c13.55,8.75,22.13,16.94,22.13,16.94l7.15-0.58c0,0-3.93-42.21,0.41-61.55
			S1675.68,3466.81,1675.44,3462.59z"/>
		<path class="st0" d="M1668.05,3598.82c-6.06,2.12-59.02,15.02-75.15,18.93c-2.6,0.63-5.24-0.89-6-3.45
			c-0.8-2.67,0.73-5.48,3.41-6.26c14.98-4.36,59.8-17.46,64.77-19.34c5.99-2.26,3.41-14.86-6.39-12.84
			c-8.08,1.67-49.02,13.27-63.2,17.31c-2.71,0.77-5.55-0.72-6.46-3.4c-0.94-2.78,0.56-5.79,3.34-6.71
			c11.67-3.87,39.82-13.21,43.73-14.6c4.94-1.76,3.24-11.23-1.87-12.14c-4.5-0.8-41.25,10.77-49.89,13.52
			c-2.59,7.92-6.25,15.35-10.83,22.11c-4.08,7.25-9.63,14.76-16.86,19.8c-3.24,2.25-6.53,4.16-9.77,5.77
			c-8.19,5.09-17.28,8.87-26.97,11.07c5.74,8.06,23.27,34.13,19.49,47.13c-4.5,15.49-9.89,26.05-9.89,26.05l2.6,6.68
			c0,0,39.31-15.86,59.09-17.25c19.77-1.39,39.57,5.91,43.54,4.46c3.97-1.44,0.78-11-9.9-17.09c-8.39-4.78-26.4-5-33.73-4.87
			c-1.9,0.03-3.57-1.21-4.09-3.04c-0.64-2.24,0.68-4.58,2.93-5.19c15.95-4.33,73.36-19.95,78.9-21.95
			c6.44-2.32,3.13-12.79-3.09-12.99c-5.02-0.16-41.29,8.76-55.09,12.21c-2.99,0.75-6.03-0.97-6.95-3.91l0,0
			c-1-3.21,0.92-6.6,4.19-7.39c17.53-4.19,67.53-16.14,73.47-17.83C1678.59,3611.58,1675.21,3596.31,1668.05,3598.82z"/>
		<path class="st0" d="M1493.46,3630.73c-1.07,0.04-2.13,0.08-3.21,0.08c-31.93,0-59.9-16.91-75.46-42.27
			c-6.54,9.05-24.4,32.05-37.33,32.71c-16.11,0.82-27.86-0.82-27.86-0.82l-5.46,4.64c0,0,27.86,31.95,35.64,50.18
			c7.78,18.23,7.37,39.33,10.04,42.61c2.66,3.28,10.65-2.87,12.9-14.95c1.77-9.5-3.92-26.58-6.44-33.47
			c-0.65-1.78-0.02-3.78,1.53-4.86c1.91-1.34,4.55-0.86,5.86,1.07c9.31,13.65,42.87,62.79,46.57,67.37
			c4.3,5.33,13.11-1.23,11.27-7.17c-1.49-4.79-21.79-36.15-29.57-48.06c-1.68-2.58-1.06-6.02,1.41-7.85c2.71-2,6.54-1.3,8.35,1.54
			c9.7,15.2,37.36,58.53,40.9,63.58c4.3,6.14,17.62-2.05,12.9-7.99c-3.99-5.03-33.51-50.85-42.48-64.81
			c-1.45-2.25-0.87-5.24,1.3-6.8c2.27-1.63,5.42-1.1,7.03,1.17c9.03,12.72,36.07,50.78,39.48,54.87c4.1,4.92,15.16-1.64,10.04-10.24
			c-4.22-7.09-28.59-41.97-37.05-54.05c-1.62-2.31-1.14-5.48,1.09-7.21c2.32-1.8,5.66-1.37,7.44,0.96
			c7.48,9.76,25.52,33.3,28.11,36.54c3.28,4.1,11.68-0.61,10.86-5.74C1520.64,3667.55,1500.47,3640.16,1493.46,3630.73z"/>
		<path class="st0" d="M1401.77,3542.33c0-22.94,8.73-43.84,23.05-59.57c-10.52-3.23-38.36-12.82-43.16-24.94
			c-5.94-15-8.16-26.65-8.16-26.65l-6.15-3.68c0,0-21.33,36.63-36.1,49.85c-14.77,13.22-34.89,19.6-37.14,23.17
			c-2.25,3.57,6.13,9.17,18.3,7.43c9.56-1.37,23.92-12.24,29.63-16.83c1.48-1.19,3.57-1.23,5.1-0.11c1.88,1.38,2.27,4.03,0.87,5.89
			c-9.95,13.2-45.72,60.74-48.88,65.72c-3.66,5.78,5.37,12.02,10.4,8.37c4.06-2.95,27.25-32.23,36.04-43.42
			c1.9-2.42,5.36-2.93,7.89-1.18v0c2.76,1.92,3.33,5.78,1.22,8.4c-11.29,14.06-43.45,54.16-47.11,59.13
			c-4.44,6.05,7.59,16.03,11.71,9.66c3.48-5.39,37.42-48.05,47.76-61.03c1.67-2.09,4.68-2.51,6.86-0.95l0,0
			c2.27,1.62,2.78,4.78,1.15,7.04c-9.16,12.63-36.53,50.45-39.31,54.99c-3.34,5.46,6.41,13.83,12.92,6.22
			c5.36-6.27,30.58-40.54,39.31-52.43c1.67-2.28,4.83-2.84,7.18-1.28c2.45,1.62,3.11,4.92,1.47,7.36
			c-6.85,10.21-23.36,34.85-25.59,38.34c-2.83,4.42,4.33,10.86,8.91,8.44c3.42-1.8,19.66-24.75,27.69-36.3
			C1403.85,3564.16,1401.77,3553.49,1401.77,3542.33z"/>
		<g>
			<path class="st0" d="M1582.35,3707.62c-12.48,0.88-39.8,10.34-54.08,16.09c-1.97,0.8-4.06,1.19-6.15,1.19
				c-0.99,0-1.99-0.1-2.97-0.28c-0.24,0.18-0.46,0.38-0.71,0.55c-1.76,1.25-3.63,2.23-5.54,2.96c0.26,3.28-0.26,6.64-1.61,9.86
				c-1.48,3.52-3.89,6.67-6.9,9.22c38.67-2.63,74.4-15.95,104.26-37.05C1601.12,3708.7,1591.41,3706.98,1582.35,3707.62z"/>
			<path class="st0" d="M1416.73,3713.84c-2.43,6.59-6.17,12.07-10.72,15.84c9.35,4.21,19.06,7.73,29.09,10.52
				C1431.48,3735.19,1424.72,3725.45,1416.73,3713.84z"/>
			<path class="st0" d="M1420.35,3349.16c6.08,1.95,16.91,5.59,29.65,9.94c-1.85-6.3-2.21-12.51-1.09-17.98
				C1439.11,3343.11,1429.58,3345.82,1420.35,3349.16z"/>
			<path class="st0" d="M1670.33,3443.5c-5.44-9.89-11.66-19.29-18.6-28.1c0.09,4.88-0.13,18.31-0.48,34.73
				C1657.44,3445.96,1664.1,3443.67,1670.33,3443.5z"/>
			<path class="st0" d="M1564.71,3370.95c4.3,0.94,8.04,3.56,10.39,7.27c0.67,1.05,1.19,2.17,1.6,3.32c1.68,0.1,3.3,0.37,4.86,0.78
				c1.7-2.81,4.09-5.24,7.07-7.06c4.72-2.89,10.58-4,16.31-3.35c-32.63-22.01-71.93-34.88-114.23-34.97
				c5.39,5.44,12.42,12.29,20.24,16.85C1521.76,3360.11,1549.67,3367.67,1564.71,3370.95z"/>
			<path class="st0" d="M1371.12,3709.27c-1.1-7.81-2.61-18.5-6.47-27.54c-4.93-11.54-22.8-34.24-32.91-45.83
				c-2.83-3.24-4.26-7.47-4.01-11.75c-1.45-1.14-2.75-2.39-3.87-3.75c-3.02,1.3-6.37,1.89-9.85,1.64c-5.91-0.42-11.7-3.26-16.1-7.6
				c14.48,38.61,40.24,71.71,73.28,95.26C1371.16,3709.54,1371.14,3709.41,1371.12,3709.27z"/>
			<path class="st0" d="M1286.27,3518.4c-0.91,7.85-1.4,15.83-1.4,23.93c0,3.87,0.12,7.72,0.33,11.54c0.01-0.02,0.02-0.04,0.03-0.06
				c1.71-2.7,10.37-14.43,21.32-29.09C1298.65,3524.5,1291.53,3522.27,1286.27,3518.4z"/>
			<path class="st0" d="M1296.26,3480.05c7.04-3.55,16.68-8.4,24.01-14.96c9.32-8.35,25.1-32.57,32.86-45.88
				c1.84-3.16,4.68-5.58,8.04-6.95c0.14-0.53,0.27-1.06,0.44-1.59c0.67-2.06,1.58-3.96,2.68-5.68c-2.17-2.47-3.75-5.49-4.59-8.87
				c-1.01-4.07-0.83-8.44,0.33-12.61c-30.6,25.12-53.81,58.9-65.88,97.61C1294.84,3480.77,1295.53,3480.42,1296.26,3480.05z"/>
			<path class="st0" d="M1629.75,3668.93c4.82,3.95,8.48,8.6,10.69,13.47c6.27-6.72,12.1-13.85,17.44-21.37
				C1651.51,3662.88,1641.43,3665.7,1629.75,3668.93z"/>
			<path class="st0" d="M1685.94,3479.82c-0.12,0.23-0.23,0.45-0.36,0.68c-3.67,6.98-8.69,16.53-10.84,26.13
				c-2.74,12.21-1.5,41.09-0.08,56.43c0.32,3.48-0.49,6.95-2.25,9.91c0.52,1.14,0.99,2.31,1.35,3.56c0.6,2.08,0.92,4.16,0.98,6.2
				c3.19,0.82,6.19,2.42,8.79,4.75c2.21,1.98,4.01,4.42,5.38,7.13c4.38-16.7,6.73-34.22,6.73-52.29
				C1695.63,3520.53,1692.23,3499.53,1685.94,3479.82z"/>
		</g>
		<rect x="2597.58" y="3396.48" class="st0" width="454.05" height="40.97"/>
		<rect x="2514.15" y="3451.38" class="st0" width="537.48" height="40.97"/>
		<rect x="2523.16" y="3506.28" class="st0" width="528.47" height="40.97"/>
		<rect x="2401.9" y="3561.17" class="st0" width="649.73" height="40.97"/>
		<g>
			<path class="st0" d="M2176.54,3333.47c2.61-0.51,7.85-0.95,12.82-0.95c6.05,0,9.78,0.6,12.99,2.47c3.07,1.64,5.24,4.63,5.24,8.66
				c0,3.86-2.27,7.51-7.22,9.35v0.17c5.02,1.32,8.75,5.14,8.75,10.77c0,4.02-1.85,7.16-4.57,9.33c-3.22,2.59-8.53,4-17.28,4
				c-4.9,0-8.51-0.32-10.74-0.65V3333.47z M2186.39,3350.3h3.22c5.26,0,8.01-2.18,8.01-5.45c0-3.34-2.53-5.1-7.02-5.1
				c-2.17,0-3.4,0.14-4.21,0.31V3350.3z M2186.39,3369.74c0.95,0.16,2.13,0.18,3.81,0.18c4.51,0,8.48-1.74,8.48-6.37
				c0-4.4-3.94-6.16-8.89-6.16h-3.39V3369.74z"/>
			<path class="st0" d="M2253.49,3354.4c0,14.42-8.7,23.13-21.55,23.13c-13.03,0-20.7-9.86-20.7-22.39
				c0-13.13,8.45-22.99,21.39-22.99C2246.13,3332.15,2253.49,3342.24,2253.49,3354.4z M2221.75,3354.95
				c0,8.61,4.06,14.68,10.69,14.68c6.72,0,10.56-6.35,10.56-14.89c0-7.92-3.74-14.68-10.58-14.68
				C2225.69,3340.05,2221.75,3346.41,2221.75,3354.95z"/>
			<path class="st0" d="M2257.77,3366.55c2.63,1.41,6.76,2.76,11.01,2.76c4.56,0,6.98-1.89,6.98-4.79c0-2.7-2.1-4.29-7.36-6.14
				c-7.33-2.6-12.12-6.59-12.12-13.01c0-7.49,6.29-13.19,16.62-13.19c5.01,0,8.63,0.99,11.22,2.21l-2.2,7.97
				c-1.74-0.83-4.91-2.09-9.17-2.09c-4.33,0-6.39,2-6.39,4.25c0,2.79,2.43,4.03,8.13,6.18c7.78,2.91,11.38,6.95,11.38,13.16
				c0,7.34-5.62,13.63-17.71,13.63c-4.98,0-9.96-1.35-12.41-2.73L2257.77,3366.55z"/>
			<path class="st0" d="M2290.04,3376.81v-43.94h11.57l9.12,16.12c2.63,4.61,5.2,10.11,7.18,15.07l0.17-0.02
				c-0.61-5.81-0.8-11.72-0.8-18.36v-12.81h9.12v43.94H2316l-9.42-16.92c-2.62-4.74-5.5-10.37-7.63-15.52l-0.22,0.02
				c0.31,5.82,0.43,12.04,0.43,19.22v13.21H2290.04z"/>
			<path class="st0" d="M2342.35,3332.87v43.94h-9.93v-43.94H2342.35z"/>
			<path class="st0" d="M2358.57,3365.53l-3.1,11.28h-10.27l13.41-43.94h13l13.68,43.94h-10.7l-3.38-11.28H2358.57z
				 M2369.73,3358.13l-2.74-9.34c-0.75-2.6-1.53-5.89-2.21-8.46h-0.14c-0.65,2.58-1.31,5.92-2.01,8.47l-2.63,9.33H2369.73z"/>
			<path class="st0" d="M2409.29,3365.53l-3.1,11.28h-10.27l13.41-43.94h13l13.68,43.94h-10.7l-3.38-11.28H2409.29z
				 M2420.45,3358.13l-2.74-9.34c-0.75-2.6-1.53-5.89-2.21-8.46h-0.14c-0.64,2.58-1.31,5.92-2.01,8.47l-2.63,9.33H2420.45z"/>
			<path class="st0" d="M2439.26,3376.81v-43.94h11.57l9.12,16.12c2.63,4.61,5.2,10.11,7.18,15.07l0.17-0.02
				c-0.61-5.81-0.8-11.72-0.8-18.36v-12.81h9.12v43.94h-10.41l-9.42-16.92c-2.62-4.74-5.5-10.37-7.63-15.52l-0.22,0.02
				c0.31,5.82,0.43,12.04,0.43,19.22v13.21H2439.26z"/>
			<path class="st0" d="M2481.64,3333.47c3.66-0.59,8.42-0.95,13.4-0.95c8.34,0,13.78,1.54,17.99,4.72
				c4.57,3.41,7.43,8.77,7.43,16.53c0,8.42-3.05,14.24-7.27,17.8c-4.62,3.85-11.7,5.69-20.27,5.69c-5.16,0-8.84-0.31-11.28-0.65
				V3333.47z M2491.56,3369.33c0.87,0.16,2.25,0.17,3.46,0.17c9,0.08,14.91-4.89,14.91-15.4c0.02-9.13-5.32-13.93-13.87-13.93
				c-2.17,0-3.63,0.18-4.51,0.38V3369.33z"/>
			<path class="st0" d="M2544.9,3332.87v16.9h16.38v-16.9h9.93v43.94h-9.93v-18.39h-16.38v18.39h-9.93v-43.94H2544.9z"/>
			<path class="st0" d="M2603.38,3358.22h-16.17v10.45h18.07v8.14h-28.01v-43.94h27.07v8.14h-17.13v9.15h16.17V3358.22z"/>
			<path class="st0" d="M2609.48,3333.47c3.19-0.54,7.92-0.95,13.2-0.95c6.52,0,11.08,0.99,14.22,3.48
				c2.62,2.08,4.07,5.17,4.07,9.21c0,5.57-3.98,9.44-7.76,10.8v0.21c3.05,1.23,4.76,4.14,5.87,8.18c1.36,4.97,2.68,10.7,3.55,12.4
				h-10.17c-0.68-1.27-1.77-4.8-3.02-10.24c-1.22-5.49-3.07-6.96-7.16-7.01h-2.95v17.25h-9.84V3333.47z M2619.32,3352.37h3.89
				c4.93,0,7.88-2.51,7.88-6.33c0-4.02-2.76-6.08-7.3-6.1c-2.38,0-3.77,0.15-4.47,0.33V3352.37z"/>
			<path class="st0" d="M2642.73,3371.44l20.93-30.11v-0.23h-19.02v-8.22h31.89v5.75l-20.48,29.74v0.23h20.81v8.22h-34.13V3371.44z"
				/>
			<path class="st0" d="M2706.64,3358.22h-16.17v10.45h18.07v8.14h-28.01v-43.94h27.07v8.14h-17.13v9.15h16.17V3358.22z"/>
			<path class="st0" d="M2749.43,3374.78c-3.08,1.06-8.88,2.47-14.67,2.47c-8.03,0-13.82-2.01-17.86-5.89
				c-4.03-3.82-6.24-9.54-6.21-16c0.05-14.62,10.7-22.93,25.09-22.93c5.67,0,10.04,1.08,12.21,2.11l-2.08,7.96
				c-2.44-1.05-5.39-1.87-10.22-1.87c-8.28,0-14.58,4.66-14.58,14.21c0,9.07,5.73,14.39,13.86,14.39c2.25,0,4.07-0.26,4.86-0.62
				v-9.23h-6.79v-7.75h16.39V3374.78z"/>
			<path class="st0" d="M2794.78,3354.4c0,14.42-8.7,23.13-21.55,23.13c-13.03,0-20.7-9.86-20.7-22.39
				c0-13.13,8.45-22.99,21.39-22.99C2787.41,3332.15,2794.78,3342.24,2794.78,3354.4z M2763.04,3354.95
				c0,8.61,4.06,14.68,10.69,14.68c6.72,0,10.56-6.35,10.56-14.89c0-7.92-3.74-14.68-10.58-14.68
				C2766.97,3340.05,2763.04,3346.41,2763.04,3354.95z"/>
			<path class="st0" d="M2808.64,3376.81l-14.09-43.94h10.88l5.32,18.6c1.54,5.23,2.87,10.2,3.97,15.68h0.14
				c1.11-5.28,2.53-10.5,4.03-15.52l5.58-18.76h10.57l-14.77,43.94H2808.64z"/>
			<path class="st0" d="M2847.06,3332.87v43.94h-9.93v-43.94H2847.06z"/>
			<path class="st0" d="M2853.1,3376.81v-43.94h11.57l9.12,16.12c2.63,4.61,5.2,10.11,7.18,15.07l0.17-0.02
				c-0.61-5.81-0.8-11.72-0.8-18.36v-12.81h9.12v43.94h-10.41l-9.42-16.92c-2.62-4.74-5.5-10.37-7.63-15.52l-0.22,0.02
				c0.31,5.82,0.43,12.04,0.43,19.22v13.21H2853.1z"/>
			<path class="st0" d="M2905.66,3365.53l-3.1,11.28h-10.27l13.41-43.94h13l13.68,43.94h-10.7l-3.38-11.28H2905.66z
				 M2916.82,3358.13l-2.74-9.34c-0.75-2.6-1.53-5.89-2.21-8.46h-0.14c-0.65,2.58-1.31,5.92-2.01,8.47l-2.63,9.33H2916.82z"/>
			<path class="st0" d="M2213.68,3418.03c-0.21-5.32-0.41-11.66-0.38-18.1h-0.18c-1.4,5.62-3.25,11.87-4.9,17.06l-5.38,17.13h-7.72
				l-4.73-16.98c-1.42-5.17-2.88-11.42-3.97-17.21h-0.14c-0.22,5.98-0.46,12.76-0.73,18.23l-0.82,16.68h-9.19l2.81-43.94h13.24
				l4.29,14.69c1.39,5.04,2.74,10.56,3.73,15.71h0.21c1.2-5.09,2.69-10.88,4.18-15.78l4.67-14.62h13l2.36,43.94h-9.66
				L2213.68,3418.03z"/>
			<path class="st0" d="M2269.27,3412.43c0,14.42-8.7,23.13-21.55,23.13c-13.03,0-20.7-9.86-20.7-22.39
				c0-13.14,8.45-22.99,21.39-22.99C2261.9,3390.18,2269.27,3400.27,2269.27,3412.43z M2237.53,3412.98
				c0,8.61,4.06,14.68,10.69,14.68c6.72,0,10.55-6.35,10.55-14.89c0-7.92-3.74-14.68-10.58-14.68
				C2241.46,3398.08,2237.53,3404.43,2237.53,3412.98z"/>
			<path class="st0" d="M2273.22,3434.84v-43.94h11.57l9.12,16.12c2.63,4.61,5.2,10.11,7.18,15.07l0.17-0.02
				c-0.61-5.81-0.8-11.72-0.8-18.36v-12.81h9.12v43.94h-10.41l-9.42-16.92c-2.62-4.74-5.5-10.37-7.63-15.52l-0.22,0.02
				c0.31,5.82,0.43,12.04,0.43,19.22v13.21H2273.22z"/>
			<path class="st0" d="M2324.08,3399.24h-11.86v-8.34h33.82v8.34h-12.03v35.6h-9.93V3399.24z"/>
			<path class="st0" d="M2374.81,3416.25h-16.17v10.45h18.07v8.14h-28.01v-43.94h27.07v8.14h-17.13v9.15h16.17V3416.25z"/>
			<path class="st0" d="M2380.92,3434.84v-43.94h11.57l9.12,16.12c2.63,4.61,5.2,10.11,7.18,15.07l0.17-0.02
				c-0.61-5.81-0.8-11.72-0.8-18.36v-12.81h9.12v43.94h-10.41l-9.42-16.92c-2.62-4.74-5.5-10.37-7.63-15.52l-0.22,0.02
				c0.31,5.82,0.43,12.04,0.43,19.22v13.21H2380.92z"/>
			<path class="st0" d="M2449.39,3416.25h-16.17v10.45h18.07v8.14h-28.01v-43.94h27.07v8.14h-17.13v9.15h16.17V3416.25z"/>
			<path class="st0" d="M2492.18,3432.81c-3.08,1.06-8.88,2.47-14.67,2.47c-8.03,0-13.82-2.01-17.86-5.89
				c-4.03-3.82-6.24-9.54-6.21-16c0.05-14.62,10.7-22.93,25.09-22.93c5.67,0,10.04,1.08,12.21,2.11l-2.08,7.96
				c-2.44-1.05-5.39-1.87-10.22-1.87c-8.28,0-14.58,4.66-14.58,14.21c0,9.07,5.73,14.39,13.86,14.39c2.25,0,4.07-0.26,4.86-0.62
				v-9.23h-6.79v-7.75h16.39V3432.81z"/>
			<path class="st0" d="M2497.35,3391.5c3.19-0.54,7.92-0.95,13.2-0.95c6.52,0,11.08,0.99,14.22,3.48c2.62,2.08,4.07,5.17,4.07,9.21
				c0,5.57-3.98,9.44-7.76,10.8v0.21c3.05,1.23,4.76,4.15,5.87,8.18c1.36,4.97,2.68,10.7,3.55,12.4h-10.17
				c-0.68-1.27-1.77-4.8-3.02-10.24c-1.22-5.49-3.07-6.96-7.16-7.01h-2.95v17.25h-9.84V3391.5z M2507.19,3410.39h3.89
				c4.93,0,7.88-2.51,7.88-6.33c0-4.02-2.76-6.08-7.3-6.1c-2.38,0-3.77,0.15-4.47,0.33V3410.39z"/>
			<path class="st0" d="M2573.32,3412.43c0,14.42-8.7,23.13-21.55,23.13c-13.03,0-20.7-9.86-20.7-22.39
				c0-13.14,8.45-22.99,21.39-22.99C2565.95,3390.18,2573.32,3400.27,2573.32,3412.43z M2541.58,3412.98
				c0,8.61,4.06,14.68,10.69,14.68c6.72,0,10.56-6.35,10.56-14.89c0-7.92-3.74-14.68-10.58-14.68
				C2545.51,3398.08,2541.58,3404.43,2541.58,3412.98z"/>
			<path class="st0" d="M2208.77,3491.65c-1.78,0.88-5.94,1.9-11.23,1.9c-15.21,0-23.06-9.51-23.06-22.03
				c0-14.98,10.74-23.27,24-23.27c5.17,0,9.09,1.01,10.82,1.95l-2.03,7.85c-1.98-0.86-4.8-1.65-8.35-1.65
				c-7.84,0-13.98,4.78-13.98,14.54c0,8.81,5.19,14.34,14.04,14.34c3.04,0,6.34-0.6,8.31-1.42L2208.77,3491.65z"/>
			<path class="st0" d="M2212.72,3449.52c3.19-0.54,7.92-0.95,13.2-0.95c6.52,0,11.08,0.99,14.22,3.48
				c2.62,2.08,4.07,5.17,4.07,9.21c0,5.57-3.98,9.44-7.76,10.8v0.21c3.05,1.23,4.76,4.15,5.87,8.18c1.36,4.97,2.68,10.7,3.55,12.4
				h-10.17c-0.68-1.27-1.77-4.8-3.02-10.24c-1.22-5.49-3.07-6.96-7.16-7.01h-2.95v17.25h-9.84V3449.52z M2222.57,3468.42h3.89
				c4.93,0,7.88-2.51,7.88-6.33c0-4.02-2.76-6.08-7.3-6.11c-2.38,0-3.77,0.15-4.47,0.33V3468.42z"/>
			<path class="st0" d="M2288.7,3470.45c0,14.42-8.7,23.13-21.55,23.13c-13.03,0-20.7-9.86-20.7-22.39
				c0-13.14,8.45-22.99,21.39-22.99C2281.33,3448.2,2288.7,3458.3,2288.7,3470.45z M2256.96,3471c0,8.61,4.06,14.68,10.69,14.68
				c6.72,0,10.56-6.35,10.56-14.89c0-7.92-3.74-14.68-10.58-14.68C2260.89,3456.1,2256.96,3462.46,2256.96,3471z"/>
			<path class="st0" d="M2301.79,3481.58l-3.1,11.28h-10.27l13.41-43.94h13l13.68,43.94h-10.7l-3.38-11.28H2301.79z
				 M2312.95,3474.18l-2.74-9.34c-0.75-2.6-1.53-5.89-2.21-8.46h-0.14c-0.64,2.58-1.31,5.92-2.01,8.47l-2.63,9.33H2312.95z"/>
			<path class="st0" d="M2334.83,3457.26h-11.86v-8.34h33.82v8.34h-12.02v35.6h-9.93V3457.26z"/>
			<path class="st0" d="M2369.4,3448.92v43.94h-9.93v-43.94H2369.4z"/>
			<path class="st0" d="M2385.62,3481.58l-3.1,11.28h-10.27l13.41-43.94h13l13.68,43.94h-10.7l-3.38-11.28H2385.62z
				 M2396.79,3474.18l-2.74-9.34c-0.75-2.6-1.53-5.89-2.21-8.46h-0.14c-0.64,2.58-1.31,5.92-2.01,8.47l-2.63,9.33H2396.79z"/>
			<path class="st0" d="M2176.87,3540.63c2.63,1.41,6.76,2.76,11.01,2.76c4.56,0,6.98-1.89,6.98-4.79c0-2.7-2.1-4.29-7.36-6.14
				c-7.33-2.6-12.12-6.59-12.12-13.01c0-7.49,6.29-13.19,16.62-13.19c5.01,0,8.63,0.99,11.22,2.21l-2.2,7.97
				c-1.74-0.83-4.91-2.09-9.17-2.09c-4.33,0-6.39,2-6.39,4.25c0,2.79,2.43,4.03,8.13,6.18c7.78,2.91,11.38,6.95,11.38,13.16
				c0,7.34-5.62,13.63-17.71,13.63c-4.98,0-9.96-1.35-12.41-2.73L2176.87,3540.63z"/>
			<path class="st0" d="M2209.14,3506.95h9.93v35.61h17.48v8.33h-27.42V3506.95z"/>
			<path class="st0" d="M2277.55,3528.48c0,14.42-8.7,23.13-21.55,23.13c-13.03,0-20.7-9.86-20.7-22.39
				c0-13.13,8.45-22.99,21.39-22.99C2270.18,3506.23,2277.55,3516.32,2277.55,3528.48z M2245.81,3529.03
				c0,8.61,4.06,14.68,10.69,14.68c6.72,0,10.56-6.35,10.56-14.89c0-7.92-3.74-14.68-10.58-14.68
				C2249.74,3514.13,2245.81,3520.48,2245.81,3529.03z"/>
			<path class="st0" d="M2291.41,3550.89l-14.09-43.94h10.88l5.32,18.6c1.54,5.23,2.87,10.2,3.97,15.68h0.14
				c1.11-5.28,2.53-10.5,4.03-15.52l5.58-18.76h10.57l-14.77,43.94H2291.41z"/>
			<path class="st0" d="M2346,3532.3h-16.17v10.45h18.07v8.14h-28.01v-43.94h27.07v8.14h-17.13v9.15H2346V3532.3z"/>
			<path class="st0" d="M2352.1,3550.89v-43.94h11.57l9.12,16.12c2.63,4.61,5.2,10.11,7.18,15.07l0.17-0.02
				c-0.61-5.81-0.8-11.72-0.8-18.36v-12.81h9.12v43.94h-10.41l-9.42-16.92c-2.62-4.74-5.5-10.37-7.63-15.52l-0.22,0.02
				c0.31,5.82,0.43,12.04,0.43,19.22v13.21H2352.1z"/>
			<path class="st0" d="M2404.41,3506.95v43.94h-9.93v-43.94H2404.41z"/>
			<path class="st0" d="M2420.63,3539.6l-3.1,11.28h-10.27l13.41-43.94h13l13.68,43.94h-10.7l-3.38-11.28H2420.63z M2431.79,3532.2
				l-2.74-9.34c-0.75-2.6-1.53-5.89-2.21-8.46h-0.14c-0.65,2.58-1.31,5.92-2.01,8.47l-2.63,9.33H2431.79z"/>
			<path class="st0" d="M2176.87,3598.66c2.63,1.41,6.76,2.76,11.01,2.76c4.56,0,6.98-1.89,6.98-4.79c0-2.7-2.1-4.29-7.36-6.14
				c-7.33-2.6-12.12-6.59-12.12-13.01c0-7.49,6.29-13.19,16.62-13.19c5.01,0,8.63,0.99,11.22,2.21l-2.2,7.97
				c-1.74-0.83-4.91-2.09-9.17-2.09c-4.33,0-6.39,2-6.39,4.25c0,2.79,2.43,4.03,8.13,6.18c7.78,2.91,11.38,6.95,11.38,13.16
				c0,7.34-5.62,13.63-17.71,13.63c-4.98,0-9.96-1.35-12.41-2.73L2176.87,3598.66z"/>
			<path class="st0" d="M2235.24,3590.33h-16.17v10.45h18.07v8.14h-28.01v-43.94h27.07v8.14h-17.13v9.15h16.17V3590.33z"/>
			<path class="st0" d="M2241.34,3565.58c3.19-0.54,7.92-0.95,13.2-0.95c6.52,0,11.08,0.99,14.22,3.48
				c2.62,2.08,4.07,5.17,4.07,9.21c0,5.57-3.98,9.44-7.76,10.8v0.21c3.05,1.23,4.76,4.14,5.87,8.18c1.36,4.97,2.68,10.7,3.55,12.4
				h-10.17c-0.68-1.27-1.77-4.8-3.02-10.24c-1.22-5.49-3.07-6.96-7.16-7.01h-2.95v17.25h-9.84V3565.58z M2251.19,3584.47h3.89
				c4.93,0,7.88-2.51,7.88-6.33c0-4.02-2.76-6.08-7.3-6.1c-2.38,0-3.77,0.15-4.47,0.33V3584.47z"/>
			<path class="st0" d="M2277.39,3565.58c2.61-0.51,7.85-0.95,12.82-0.95c6.05,0,9.78,0.6,12.99,2.46c3.07,1.64,5.24,4.63,5.24,8.66
				c0,3.86-2.27,7.51-7.22,9.34v0.17c5.02,1.32,8.75,5.14,8.75,10.77c0,4.02-1.85,7.16-4.57,9.33c-3.22,2.59-8.53,4-17.28,4
				c-4.9,0-8.51-0.32-10.74-0.65V3565.58z M2287.24,3582.4h3.22c5.26,0,8.01-2.18,8.01-5.45c0-3.34-2.53-5.1-7.02-5.1
				c-2.17,0-3.4,0.14-4.21,0.31V3582.4z M2287.24,3601.84c0.95,0.16,2.13,0.18,3.81,0.18c4.51,0,8.48-1.74,8.48-6.37
				c0-4.4-3.94-6.16-8.89-6.16h-3.39V3601.84z"/>
			<path class="st0" d="M2324.09,3564.97v43.94h-9.93v-43.94H2324.09z"/>
			<path class="st0" d="M2340.31,3597.63l-3.1,11.28h-10.27l13.41-43.94h13l13.68,43.94h-10.7l-3.38-11.28H2340.31z
				 M2351.48,3590.23l-2.74-9.34c-0.75-2.6-1.53-5.89-2.21-8.46h-0.14c-0.64,2.58-1.31,5.92-2.01,8.47l-2.63,9.33H2351.48z"/>
		</g>
	</g>
	<g>
		<path class="st0" d="M2173,3655.66c3.19-0.54,7.92-0.95,13.2-0.95c6.52,0,11.08,0.99,14.22,3.48c2.62,2.08,4.07,5.17,4.07,9.21
			c0,5.57-3.98,9.44-7.76,10.8v0.21c3.05,1.23,4.76,4.14,5.87,8.18c1.36,4.97,2.68,10.7,3.55,12.4h-10.17
			c-0.68-1.27-1.77-4.8-3.02-10.24c-1.22-5.49-3.07-6.96-7.16-7.01h-2.95v17.25H2173V3655.66z M2182.84,3674.55h3.89
			c4.93,0,7.88-2.51,7.88-6.33c0-4.02-2.76-6.08-7.3-6.1c-2.38,0-3.77,0.15-4.47,0.33V3674.55z"/>
		<path class="st0" d="M2237.76,3680.4h-16.17v10.45h18.07v8.14h-28.01v-43.94h27.07v8.14h-17.13v9.15h16.17V3680.4z"/>
		<path class="st0" d="M2283.16,3696.96c-3.08,1.06-8.88,2.47-14.67,2.47c-8.03,0-13.82-2.01-17.86-5.89
			c-4.03-3.82-6.24-9.54-6.21-16c0.05-14.62,10.7-22.93,25.09-22.93c5.67,0,10.04,1.08,12.21,2.11l-2.08,7.96
			c-2.44-1.05-5.39-1.87-10.22-1.87c-8.28,0-14.58,4.66-14.58,14.21c0,9.07,5.73,14.39,13.86,14.39c2.25,0,4.07-0.26,4.86-0.62
			v-9.23h-6.79v-7.75h16.39V3696.96z"/>
		<path class="st0" d="M2300.87,3655.05v43.94h-9.93v-43.94H2300.87z"/>
		<path class="st0" d="M2349.7,3676.58c0,14.42-8.7,23.13-21.55,23.13c-13.03,0-20.7-9.86-20.7-22.39
			c0-13.13,8.45-22.99,21.39-22.99C2342.33,3654.34,2349.7,3664.43,2349.7,3676.58z M2317.95,3677.13c0,8.61,4.06,14.68,10.69,14.68
			c6.72,0,10.56-6.35,10.56-14.89c0-7.92-3.74-14.68-10.58-14.68C2321.89,3662.23,2317.95,3668.59,2317.95,3677.13z"/>
		<path class="st0" d="M2356.25,3698.99v-43.94h11.57l9.12,16.12c2.63,4.61,5.2,10.11,7.18,15.07l0.17-0.02
			c-0.61-5.81-0.8-11.72-0.8-18.36v-12.81h9.12v43.94h-10.41l-9.42-16.92c-2.62-4.74-5.5-10.37-7.63-15.52l-0.22,0.02
			c0.31,5.82,0.43,12.04,0.43,19.22v13.21H2356.25z"/>
		<path class="st0" d="M2411.42,3687.71l-3.1,11.28h-10.27l13.41-43.94h13l13.68,43.94h-10.7l-3.38-11.28H2411.42z M2422.58,3680.31
			l-2.74-9.34c-0.75-2.6-1.53-5.89-2.21-8.46h-0.14c-0.65,2.58-1.31,5.92-2.01,8.47l-2.63,9.33H2422.58z"/>
		<path class="st0" d="M2444,3655.05h9.93v35.61h17.48v8.33H2444V3655.05z"/>
		<path class="st0" d="M2522.71,3697.78c-1.78,0.88-5.94,1.9-11.23,1.9c-15.21,0-23.06-9.51-23.06-22.03
			c0-14.98,10.74-23.28,24-23.28c5.17,0,9.09,1.01,10.82,1.95l-2.03,7.85c-1.98-0.86-4.8-1.65-8.35-1.65
			c-7.84,0-13.98,4.78-13.98,14.54c0,8.81,5.19,14.34,14.04,14.34c3.05,0,6.34-0.6,8.31-1.42L2522.71,3697.78z"/>
		<path class="st0" d="M2567.5,3676.58c0,14.42-8.7,23.13-21.55,23.13c-13.03,0-20.7-9.86-20.7-22.39
			c0-13.13,8.45-22.99,21.39-22.99C2560.13,3654.34,2567.5,3664.43,2567.5,3676.58z M2535.76,3677.13c0,8.61,4.06,14.68,10.69,14.68
			c6.72,0,10.56-6.35,10.56-14.89c0-7.92-3.74-14.68-10.58-14.68C2539.69,3662.23,2535.76,3668.59,2535.76,3677.13z"/>
		<path class="st0" d="M2614.24,3676.58c0,14.42-8.7,23.13-21.55,23.13c-13.03,0-20.7-9.86-20.7-22.39
			c0-13.13,8.45-22.99,21.39-22.99C2606.87,3654.34,2614.24,3664.43,2614.24,3676.58z M2582.5,3677.13
			c0,8.61,4.06,14.68,10.69,14.68c6.72,0,10.56-6.35,10.56-14.89c0-7.92-3.74-14.68-10.58-14.68
			C2586.43,3662.23,2582.5,3668.59,2582.5,3677.13z"/>
		<path class="st0" d="M2620.8,3655.64c3.06-0.51,7.36-0.92,13.41-0.92c6.1,0,10.5,1.19,13.45,3.55c2.81,2.18,4.66,5.85,4.66,10.16
			c0,4.31-1.39,7.98-4.01,10.4c-3.39,3.19-8.46,4.66-14.27,4.66c-1.32,0-2.49-0.09-3.39-0.23v15.73h-9.84V3655.64z M2630.64,3675.56
			c0.82,0.19,1.85,0.26,3.3,0.26c5.28,0,8.53-2.67,8.53-7.12c0-4.04-2.77-6.45-7.78-6.45c-1.96,0-3.33,0.16-4.06,0.33V3675.56z"/>
		<path class="st0" d="M2684.78,3680.4h-16.17v10.45h18.07v8.14h-28.01v-43.94h27.07v8.14h-17.13v9.15h16.17V3680.4z"/>
		<path class="st0" d="M2693.49,3655.66c3.19-0.54,7.92-0.95,13.2-0.95c6.52,0,11.08,0.99,14.22,3.48c2.62,2.08,4.07,5.17,4.07,9.21
			c0,5.57-3.98,9.44-7.76,10.8v0.21c3.05,1.23,4.76,4.14,5.87,8.18c1.36,4.97,2.68,10.7,3.55,12.4h-10.17
			c-0.68-1.27-1.77-4.8-3.02-10.24c-1.22-5.49-3.07-6.96-7.16-7.01h-2.95v17.25h-9.84V3655.66z M2703.33,3674.55h3.89
			c4.93,0,7.88-2.51,7.88-6.33c0-4.02-2.76-6.08-7.3-6.1c-2.38,0-3.77,0.15-4.47,0.33V3674.55z"/>
		<path class="st0" d="M2742.92,3687.71l-3.1,11.28h-10.27l13.41-43.94h13l13.68,43.94h-10.7l-3.38-11.28H2742.92z M2754.08,3680.31
			l-2.74-9.34c-0.75-2.6-1.53-5.89-2.21-8.46H2749c-0.64,2.58-1.31,5.92-2.01,8.47l-2.63,9.33H2754.08z"/>
		<path class="st0" d="M2778.57,3663.39h-11.86v-8.34h33.82v8.34h-12.03v35.6h-9.93V3663.39z"/>
		<path class="st0" d="M2815.75,3655.05v43.94h-9.93v-43.94H2815.75z"/>
		<path class="st0" d="M2834.76,3698.99l-14.09-43.94h10.88l5.32,18.6c1.54,5.23,2.87,10.2,3.97,15.68h0.14
			c1.11-5.28,2.53-10.5,4.03-15.52l5.58-18.76h10.57l-14.77,43.94H2834.76z"/>
		<path class="st0" d="M2891.96,3680.4h-16.17v10.45h18.07v8.14h-28.01v-43.94h27.07v8.14h-17.13v9.15h16.17V3680.4z"/>
		<path class="st0" d="M2213.19,3731.33c0,14.42-8.7,23.13-21.55,23.13c-13.03,0-20.7-9.86-20.7-22.39
			c0-13.13,8.45-22.99,21.39-22.99C2205.82,3709.09,2213.19,3719.18,2213.19,3731.33z M2181.44,3731.89
			c0,8.61,4.06,14.68,10.69,14.68c6.72,0,10.56-6.35,10.56-14.89c0-7.92-3.74-14.68-10.58-14.68
			C2185.38,3716.99,2181.44,3723.34,2181.44,3731.89z"/>
		<path class="st0" d="M2219.74,3753.74v-43.94h11.57l9.12,16.12c2.63,4.61,5.2,10.11,7.18,15.07l0.17-0.02
			c-0.61-5.81-0.8-11.72-0.8-18.36v-12.81h9.12v43.94h-10.41l-9.42-16.92c-2.62-4.74-5.5-10.37-7.63-15.52l-0.22,0.02
			c0.31,5.82,0.43,12.04,0.43,19.22v13.21H2219.74z"/>
		<path class="st0" d="M2296.96,3752.53c-1.78,0.88-5.94,1.9-11.23,1.9c-15.21,0-23.06-9.51-23.06-22.03
			c0-14.98,10.74-23.28,24-23.28c5.17,0,9.09,1.01,10.82,1.95l-2.03,7.86c-1.98-0.86-4.8-1.65-8.35-1.65
			c-7.84,0-13.98,4.78-13.98,14.54c0,8.81,5.19,14.34,14.04,14.34c3.05,0,6.34-0.6,8.31-1.42L2296.96,3752.53z"/>
		<path class="st0" d="M2341.74,3731.33c0,14.42-8.7,23.13-21.55,23.13c-13.03,0-20.7-9.86-20.7-22.39
			c0-13.13,8.45-22.99,21.39-22.99C2334.37,3709.09,2341.74,3719.18,2341.74,3731.33z M2310,3731.89c0,8.61,4.06,14.68,10.69,14.68
			c6.72,0,10.56-6.35,10.56-14.89c0-7.92-3.74-14.68-10.58-14.68C2313.93,3716.99,2310,3723.34,2310,3731.89z"/>
		<path class="st0" d="M2348.3,3709.81h9.93v35.61h17.48v8.33h-27.42V3709.81z"/>
		<path class="st0" d="M2419.32,3731.33c0,14.42-8.7,23.13-21.55,23.13c-13.03,0-20.7-9.86-20.7-22.39
			c0-13.13,8.45-22.99,21.39-22.99C2411.95,3709.09,2419.32,3719.18,2419.32,3731.33z M2387.58,3731.89
			c0,8.61,4.06,14.68,10.69,14.68c6.72,0,10.55-6.35,10.55-14.89c0-7.92-3.74-14.68-10.58-14.68
			C2391.51,3716.99,2387.58,3723.34,2387.58,3731.89z"/>
		<path class="st0" d="M2462.57,3751.72c-3.08,1.06-8.88,2.47-14.67,2.47c-8.03,0-13.82-2.01-17.86-5.89
			c-4.03-3.82-6.24-9.54-6.21-16c0.05-14.62,10.7-22.93,25.09-22.93c5.67,0,10.04,1.08,12.21,2.11l-2.08,7.96
			c-2.44-1.05-5.39-1.87-10.22-1.87c-8.28,0-14.58,4.66-14.58,14.21c0,9.07,5.73,14.39,13.86,14.39c2.25,0,4.07-0.26,4.86-0.62
			v-9.23h-6.79v-7.75h16.39V3751.72z"/>
		<path class="st0" d="M2480.46,3753.74v-18.01l-13.88-25.93h11.38l4.47,10.57c1.35,3.16,2.31,5.51,3.39,8.42h0.13
			c0.98-2.74,2.04-5.31,3.31-8.43l4.43-10.56h11.2l-14.5,25.59v18.35H2480.46z"/>
		<path class="st0" d="M2559.51,3751.72c-3.08,1.06-8.88,2.47-14.67,2.47c-8.03,0-13.82-2.01-17.86-5.89
			c-4.03-3.82-6.24-9.54-6.21-16c0.05-14.62,10.7-22.93,25.09-22.93c5.67,0,10.04,1.08,12.21,2.11l-2.08,7.96
			c-2.44-1.05-5.39-1.87-10.22-1.87c-8.28,0-14.58,4.66-14.58,14.21c0,9.07,5.73,14.39,13.86,14.39c2.25,0,4.07-0.26,4.86-0.62
			v-9.23h-6.79v-7.75h16.39V3751.72z"/>
		<path class="st0" d="M2567.28,3710.41c3.19-0.54,7.92-0.95,13.2-0.95c6.52,0,11.08,0.99,14.22,3.48c2.62,2.08,4.07,5.17,4.07,9.21
			c0,5.57-3.98,9.44-7.76,10.8v0.21c3.05,1.23,4.76,4.14,5.87,8.18c1.36,4.97,2.68,10.7,3.55,12.4h-10.17
			c-0.68-1.27-1.77-4.8-3.02-10.24c-1.22-5.49-3.07-6.96-7.16-7.01h-2.95v17.25h-9.84V3710.41z M2577.12,3729.3h3.89
			c4.93,0,7.88-2.51,7.88-6.33c0-4.02-2.76-6.08-7.3-6.1c-2.38,0-3.77,0.15-4.47,0.33V3729.3z"/>
		<path class="st0" d="M2645.86,3731.33c0,14.42-8.7,23.13-21.55,23.13c-13.03,0-20.7-9.86-20.7-22.39
			c0-13.13,8.45-22.99,21.39-22.99C2638.49,3709.09,2645.86,3719.18,2645.86,3731.33z M2614.12,3731.89
			c0,8.61,4.06,14.68,10.69,14.68c6.72,0,10.56-6.35,10.56-14.89c0-7.92-3.74-14.68-10.58-14.68
			C2618.05,3716.99,2614.12,3723.34,2614.12,3731.89z"/>
		<path class="st0" d="M2662.29,3709.81v25.27c0,7.59,2.92,11.46,7.96,11.46c5.22,0,8.09-3.68,8.09-11.46v-25.27h9.93v24.66
			c0,13.56-6.85,20-18.35,20c-11.09,0-17.56-6.15-17.56-20.12v-24.54H2662.29z"/>
		<path class="st0" d="M2696.88,3710.39c3.06-0.51,7.36-0.92,13.41-0.92c6.1,0,10.5,1.19,13.45,3.55c2.81,2.18,4.66,5.85,4.66,10.16
			c0,4.31-1.39,7.98-4.01,10.4c-3.39,3.19-8.46,4.66-14.27,4.66c-1.32,0-2.49-0.09-3.39-0.23v15.73h-9.84V3710.39z M2706.72,3730.32
			c0.82,0.19,1.85,0.26,3.3,0.26c5.28,0,8.53-2.67,8.53-7.12c0-4.04-2.77-6.45-7.78-6.45c-1.96,0-3.33,0.16-4.06,0.33V3730.32z"/>
	</g>
</g>
</svg>
