<?xml version="1.0" encoding="utf-8"?>
<!-- Generator: Adobe Illustrator 24.0.1, SVG Export Plug-In . SVG Version: 6.00 Build 0)  -->
<svg version="1.1" id="Layer_1" xmlns="http://www.w3.org/2000/svg" xmlns:xlink="http://www.w3.org/1999/xlink" x="0px" y="0px"
	 viewBox="0 0 2020 2020" style="enable-background:new 0 0 2020 2020;" xml:space="preserve">
<style type="text/css">
	.st0{fill:#F6BE07;}
</style>
<g>
	<path class="st0" d="M1349.04,1361.04c3.03-0.01,5.87-1.2,8.01-3.34c2.14-2.15,3.31-5,3.3-8.03c-0.02-6.24-5.1-11.31-11.34-11.31
		l-28.1,0.07v-258.81l0.97-0.37c14.72-5.58,24.61-19.88,24.61-35.59c0-20.98-17.07-38.05-38.05-38.05s-38.05,17.07-38.05,38.05
		c0,16.77,10.77,31.37,26.79,36.35l1.05,0.33v15.52l-0.22,0.36c-25,41.19-79.94,67.81-139.97,67.81
		c-57.14,0-109.41-23.3-136.41-60.81l-0.28-0.39v-22.99l0.99-0.36c15.08-5.42,25.2-19.82,25.2-35.81
		c0-20.98-17.07-38.05-38.05-38.05s-38.05,17.07-38.05,38.05c0,16.47,10.53,31,26.19,36.15l1.03,0.34v20.35l-0.26,0.38
		c-26.17,38.36-80.35,63.14-138.03,63.14c-57.96,0-112.25-24.96-138.33-63.58l-0.26-0.38v-20.05l1.02-0.35
		c15.43-5.26,25.8-19.74,25.8-36.02c0-20.98-17.07-38.05-38.05-38.05c-20.98,0-38.05,17.07-38.05,38.05
		c0,16.18,10.29,30.63,25.6,35.95l1.01,0.35v258.53l-28.13,0.07c-3.03,0.01-5.87,1.2-8.01,3.34c-2.14,2.15-3.31,5-3.3,8.03
		c0.02,6.24,5.1,11.31,11.34,11.31l78.92-0.21c6.25-0.02,11.33-5.12,11.31-11.37c-0.02-6.24-5.1-11.31-11.34-11.31l-28.11,0.07
		v-203.2l2.52,2.33c11.81,10.94,25.71,20.35,41.29,27.98c28.3,13.85,61.07,21.17,94.77,21.17c33.58,0,66.24-7.27,94.47-21.02
		c15.58-7.59,29.48-16.96,41.31-27.86l2.52-2.32v202.98l-28.13,0.07c-3.03,0.01-5.87,1.2-8.01,3.34c-2.14,2.15-3.31,5-3.3,8.03
		c0.02,6.24,5.1,11.31,11.34,11.31l78.92-0.21c3.03-0.01,5.87-1.2,8.01-3.34c2.14-2.15,3.31-5,3.3-8.03
		c-0.02-6.24-5.1-11.31-11.34-11.31l-28.11,0.07v-201.38l2.5,2.25c33.57,30.13,82.48,47.4,134.19,47.4
		c34.36,0,67.55-7.62,95.98-22.03c15.83-8.03,29.85-17.95,41.66-29.5l2.55-2.49v205.81l-28.13,0.07
		c-6.25,0.02-11.33,5.12-11.31,11.37c0.02,6.24,5.1,11.31,11.34,11.31l0.04,1.5l0,0l0-1.5L1349.04,1361.04z M1293.06,1043.66
		c0-8.47,6.89-15.37,15.37-15.37c8.47,0,15.37,6.89,15.37,15.37s-6.89,15.37-15.37,15.37
		C1299.95,1059.03,1293.06,1052.14,1293.06,1043.66z M710.55,1059.03c-8.47,0-15.37-6.89-15.37-15.37s6.89-15.37,15.37-15.37
		s15.37,6.89,15.37,15.37S719.02,1059.03,710.55,1059.03z M1009.49,1059.03c-8.47,0-15.37-6.89-15.37-15.37s6.89-15.37,15.37-15.37
		c8.47,0,15.37,6.89,15.37,15.37S1017.96,1059.03,1009.49,1059.03z"/>
	<path class="st0" d="M965.72,790.34H731.01c-6.25,0-11.34,5.09-11.34,11.34v153.63c0,6.25,5.09,11.34,11.34,11.34h234.72
		c6.25,0,11.34-5.09,11.34-11.34V801.68C977.07,795.43,971.98,790.34,965.72,790.34z M954.38,943.98H742.35V813.02h212.04V943.98z"
		/>
	<path class="st0" d="M1293.26,657.25h-234.72c-6.25,0-11.34,5.09-11.34,11.34v286.73c0,6.25,5.09,11.34,11.34,11.34h234.72
		c6.25,0,11.34-5.09,11.34-11.34V668.59C1304.6,662.34,1299.51,657.25,1293.26,657.25z M1281.92,943.98h-212.04V679.93h212.04
		V943.98z"/>
	<path class="st0" d="M1253.24,719.96c0-6.25-5.09-11.34-11.34-11.34h-131.99c-6.25,0-11.34,5.09-11.34,11.34v184
		c0,6.25,5.09,11.34,11.34,11.34h131.99c6.25,0,11.34-5.09,11.34-11.34V719.96z M1230.56,892.61h-109.31V731.3h109.31V892.61z"/>
	<path class="st0" d="M909.84,840.22H786.56c-6.25,0-11.34,5.09-11.34,11.34v58.56c0,6.25,5.09,11.34,11.34,11.34
		s11.34-5.09,11.34-11.34V862.9h111.93c6.25,0,11.34-5.09,11.34-11.34S916.09,840.22,909.84,840.22z"/>
</g>
</svg>
