<?xml version="1.0" encoding="utf-8"?>
<!-- Generator: Adobe Illustrator 23.0.1, SVG Export Plug-In . SVG Version: 6.00 Build 0)  -->
<svg version="1.1" id="Layer_1" xmlns="http://www.w3.org/2000/svg" xmlns:xlink="http://www.w3.org/1999/xlink" x="0px" y="0px"
	 viewBox="0 0 200 200" style="enable-background:new 0 0 200 200;" xml:space="preserve">
<style type="text/css">
	.st0{fill:none;stroke:#F7BD02;stroke-width:2.5;stroke-linecap:round;stroke-linejoin:round;stroke-miterlimit:10;}
</style>
<g>
	<g>
		<path class="st0" d="M74.74,134.47l-18.53,9.31l4.61-13.92C52.53,124.52,47,115.21,47,104.61c0-16.55,13.41-29.96,29.96-29.96
			c3.55,0,6.96,0.6,10.09,1.75c11.57,4.15,19.86,15.21,19.86,28.21c0,6.13-1.84,11.8-4.98,16.55c-5.35,8.07-14.56,13.41-24.98,13.41
			C76.22,134.57,75.48,134.52,74.74,134.47z"/>
		<path class="st0" d="M87.05,76.4c5.44-11.94,17.42-20.19,31.39-20.19c19.08,0,34.57,15.49,34.57,34.57
			c0,11.25-5.39,21.29-13.78,27.56l4.56,16.22l-19.03-9.82c-2.03,0.41-4.15,0.6-6.31,0.6c-5.99,0-11.61-1.52-16.5-4.19"/>
	</g>
	<circle class="st0" cx="63.13" cy="104.61" r="2.3"/>
	<circle class="st0" cx="76.96" cy="104.61" r="2.3"/>
	<circle class="st0" cx="90.78" cy="104.61" r="2.3"/>
	<circle class="st0" cx="136.87" cy="90.78" r="2.3"/>
	<circle class="st0" cx="118.43" cy="90.78" r="2.3"/>
</g>
</svg>
