<?xml version="1.0" encoding="utf-8"?>
<!-- Generator: Adobe Illustrator 24.0.1, SVG Export Plug-In . SVG Version: 6.00 Build 0)  -->
<svg version="1.1" id="Layer_1" xmlns="http://www.w3.org/2000/svg" xmlns:xlink="http://www.w3.org/1999/xlink" x="0px" y="0px"
	 viewBox="0 0 2020 2020" style="enable-background:new 0 0 2020 2020;" xml:space="preserve">
<style type="text/css">
	.st0{fill:#F6BE07;}
</style>
<g>
	<g>
		<g>
			<path class="st0" d="M881.85,1176.59h-25.63c-7.08,0-12.81,5.74-12.81,12.81c0,7.08,5.74,12.81,12.81,12.81h25.63
				c7.08,0,12.81-5.74,12.81-12.81C894.67,1182.33,888.93,1176.59,881.85,1176.59z"/>
		</g>
	</g>
	<g>
		<g>
			<path class="st0" d="M1240.67,1176.59H933.11c-7.08,0-12.81,5.74-12.81,12.81c0,7.08,5.74,12.81,12.81,12.81h307.56
				c7.08,0,12.81-5.74,12.81-12.81C1253.48,1182.33,1247.74,1176.59,1240.67,1176.59z"/>
		</g>
	</g>
	<g>
		<g>
			<path class="st0" d="M881.85,1099.7h-25.63c-7.08,0-12.81,5.74-12.81,12.81c0,7.08,5.74,12.81,12.81,12.81h25.63
				c7.08,0,12.81-5.74,12.81-12.81C894.67,1105.44,888.93,1099.7,881.85,1099.7z"/>
		</g>
	</g>
	<g>
		<g>
			<path class="st0" d="M1240.67,1099.7H933.11c-7.08,0-12.81,5.74-12.81,12.81c0,7.08,5.74,12.81,12.81,12.81h307.56
				c7.08,0,12.81-5.74,12.81-12.81C1253.48,1105.44,1247.74,1099.7,1240.67,1099.7z"/>
		</g>
	</g>
	<g>
		<g>
			<path class="st0" d="M881.85,1022.81h-25.63c-7.08,0-12.81,5.74-12.81,12.81s5.74,12.81,12.81,12.81h25.63
				c7.08,0,12.81-5.74,12.81-12.81S888.93,1022.81,881.85,1022.81z"/>
		</g>
	</g>
	<g>
		<g>
			<path class="st0" d="M1240.67,1022.81H933.11c-7.08,0-12.81,5.74-12.81,12.81s5.74,12.81,12.81,12.81h307.56
				c7.08,0,12.81-5.74,12.81-12.81S1247.74,1022.81,1240.67,1022.81z"/>
		</g>
	</g>
	<g>
		<g>
			<path class="st0" d="M881.85,945.93h-25.63c-7.08,0-12.81,5.74-12.81,12.81c0,7.08,5.74,12.81,12.81,12.81h25.63
				c7.08,0,12.81-5.74,12.81-12.81C894.67,951.66,888.93,945.93,881.85,945.93z"/>
		</g>
	</g>
	<g>
		<g>
			<path class="st0" d="M1240.67,945.93H933.11c-7.08,0-12.81,5.74-12.81,12.81c0,7.08,5.74,12.81,12.81,12.81h307.56
				c7.08,0,12.81-5.74,12.81-12.81C1253.48,951.66,1247.74,945.93,1240.67,945.93z"/>
		</g>
	</g>
	<g>
		<g>
			<path class="st0" d="M881.85,869.04h-25.63c-7.08,0-12.81,5.74-12.81,12.81c0,7.08,5.74,12.81,12.81,12.81h25.63
				c7.08,0,12.81-5.74,12.81-12.81C894.67,874.77,888.93,869.04,881.85,869.04z"/>
		</g>
	</g>
	<g>
		<g>
			<path class="st0" d="M1240.67,869.04H933.11c-7.08,0-12.81,5.74-12.81,12.81c0,7.08,5.74,12.81,12.81,12.81h307.56
				c7.08,0,12.81-5.74,12.81-12.81C1253.48,874.77,1247.74,869.04,1240.67,869.04z"/>
		</g>
	</g>
	<g>
		<g>
			<path class="st0" d="M1330.2,816.97c-0.06-1.12-0.28-2.23-0.65-3.29c-0.14-0.41-0.24-0.81-0.42-1.2
				c-0.62-1.39-1.49-2.67-2.56-3.75l-179.41-179.41c-1.09-1.07-2.36-1.94-3.75-2.56c-0.4-0.18-0.79-0.28-1.19-0.42
				c-1.07-0.37-2.19-0.59-3.32-0.67c-0.22,0.04-0.46-0.1-0.74-0.1H779.33c-7.08,0-12.81,5.74-12.81,12.81v38.44h-64.07
				c-7.08,0-12.81,5.74-12.81,12.81v692c0,7.08,5.74,12.81,12.81,12.81h538.22c7.08,0,12.81-5.74,12.81-12.81v-64.07h64.07
				c7.08,0,12.81-5.74,12.81-12.81V817.78C1330.37,817.5,1330.23,817.25,1330.2,816.97z M1150.96,669.31l135.66,135.66h-135.66
				V669.31z M1227.85,1368.81H715.26V702.44h51.26v602.3c0,7.08,5.74,12.81,12.81,12.81h448.52V1368.81z M1304.74,1291.93H792.15
				V651.19h333.19v166.59c0,7.08,5.74,12.81,12.81,12.81h166.59V1291.93z"/>
		</g>
	</g>
	<g>
		<g>
			<path class="st0" d="M933.11,740.89h-76.89c-7.08,0-12.81,5.74-12.81,12.81v76.89c0,7.08,5.74,12.81,12.81,12.81h76.89
				c7.08,0,12.81-5.74,12.81-12.81V753.7C945.93,746.63,940.19,740.89,933.11,740.89z M920.3,817.78h-51.26v-51.26h51.26V817.78z"/>
		</g>
	</g>
</g>
</svg>
