<?xml version="1.0" encoding="utf-8"?>
<!-- Generator: Adobe Illustrator 23.0.1, SVG Export Plug-In . SVG Version: 6.00 Build 0)  -->
<svg version="1.1" id="Layer_1" xmlns="http://www.w3.org/2000/svg" xmlns:xlink="http://www.w3.org/1999/xlink" x="0px" y="0px"
	 viewBox="0 0 200 200" style="enable-background:new 0 0 200 200;" xml:space="preserve">
<style type="text/css">
	.st0{fill:none;stroke:#9BF2CA;stroke-width:2.5;stroke-linecap:round;stroke-linejoin:round;stroke-miterlimit:10;}
</style>
<g>
	<path class="st0" d="M153.49,119.09l6.2,2.5c1.12,0.45,1.86,1.53,1.88,2.74c0.02,1.21-0.69,2.31-1.79,2.8l-47.19,20.82
		c-5.77,2.55-12.41,2.25-17.93-0.81l-54.38-30.12c-1.25-0.69-1.98-2.07-1.85-3.49c0.13-1.43,1.09-2.64,2.45-3.1l8.88-2.97"/>
	<g>
		<line class="st0" x1="98.5" y1="134.8" x2="98.5" y2="112.87"/>
		<line class="st0" x1="126.89" y1="134.8" x2="126.89" y2="112.87"/>
		<path class="st0" d="M126.89,112.87c0,2.13-6.36,3.86-14.19,3.86c-7.84,0-14.2-1.73-14.2-3.86c0-2.13,6.36-3.85,14.2-3.85
			C120.53,109.02,126.89,110.74,126.89,112.87z"/>
		<path class="st0" d="M98.5,134.8c0,2.13,6.36,3.86,14.2,3.86c7.84,0,14.19-1.73,14.19-3.86"/>
	</g>
	<line class="st0" x1="111.31" y1="109.04" x2="86.4" y2="98.26"/>
	<polyline class="st0" points="95.25,56.32 95.26,56.32 104.48,58.79 145.52,69.8 145.52,115.18 145.52,115.88 145.52,123.83 
		145.52,123.84 126.88,115.77 	"/>
	<line class="st0" x1="145.52" y1="69.8" x2="154.4" y2="65.36"/>
	<line class="st0" x1="145.52" y1="123.84" x2="154.4" y2="118.56"/>
	<polyline class="st0" points="95.02,50.34 95.02,50.34 104.47,52.73 154.4,65.36 154.4,118.55 	"/>
	<polyline class="st0" points="74.53,110.87 58.82,116.84 58.82,65.05 95.26,56.32 95.26,75.44 	"/>
	<line class="st0" x1="58.82" y1="116.84" x2="49.77" y2="112.79"/>
	<polyline class="st0" points="74.53,110.87 74.53,81.37 95.26,75.44 	"/>
	<polyline class="st0" points="95.02,50.34 95.02,50.34 83.27,53.11 83.26,53.11 81.23,53.59 73.99,55.3 49.77,61.01 49.77,107.45 
		49.77,112.79 	"/>
	<line class="st0" x1="49.77" y1="61" x2="58.82" y2="65.05"/>
	<path class="st0" d="M86.4,77.97c0,7.67,0,12.45,0,20.29"/>
	<polygon class="st0" points="132.96,109.7 102.24,97.42 102.24,68.91 132.96,78.55 	"/>
	<path class="st0" d="M103.29,63.12c0-0.58-0.47-1.05-1.05-1.05c-0.58,0-1.05,0.47-1.05,1.05c0,0.58,0.47,1.05,1.05,1.05
		C102.82,64.17,103.29,63.7,103.29,63.12z"/>
	<path class="st0" d="M110.9,65.36c0-0.58-0.47-1.05-1.05-1.05c-0.58,0-1.05,0.47-1.05,1.05c0,0.58,0.47,1.05,1.05,1.05
		C110.43,66.41,110.9,65.94,110.9,65.36z"/>
	<path class="st0" d="M118.65,67.45c0-0.58-0.47-1.05-1.05-1.05c-0.58,0-1.05,0.47-1.05,1.05c0,0.58,0.47,1.05,1.05,1.05
		C118.18,68.49,118.65,68.02,118.65,67.45z"/>
	<path class="st0" d="M126.59,69.54c0-0.58-0.47-1.05-1.05-1.05c-0.58,0-1.05,0.47-1.05,1.05c0,0.58,0.47,1.05,1.05,1.05
		C126.12,70.59,126.59,70.12,126.59,69.54z"/>
	<path class="st0" d="M135.05,72.05c0-0.58-0.47-1.05-1.05-1.05c-0.58,0-1.05,0.47-1.05,1.05c0,0.58,0.47,1.05,1.05,1.05
		C134.58,73.1,135.05,72.63,135.05,72.05z"/>
	<line class="st0" x1="74.53" y1="101.96" x2="86.4" y2="98.26"/>
</g>
</svg>
