<?xml version="1.0" encoding="utf-8"?>
<!-- Generator: Adobe Illustrator 23.0.1, SVG Export Plug-In . SVG Version: 6.00 Build 0)  -->
<svg version="1.1" id="Layer_1" xmlns="http://www.w3.org/2000/svg" xmlns:xlink="http://www.w3.org/1999/xlink" x="0px" y="0px"
	 viewBox="0 0 200 200" style="enable-background:new 0 0 200 200;" xml:space="preserve">
<style type="text/css">
	.st0{fill:none;stroke:#F7BD02;stroke-width:2.5;stroke-linecap:round;stroke-linejoin:round;stroke-miterlimit:10;}
</style>
<g>
	<path class="st0" d="M130.46,109.25H69.54c-0.55,0-1-0.45-1-1V69.54c0-0.55,0.45-1,1-1h60.92c0.55,0,1,0.45,1,1v38.71
		C131.46,108.81,131.01,109.25,130.46,109.25z"/>
	<polygon class="st0" points="116.66,68.54 83.34,68.54 90.75,57.43 109.25,57.43 	"/>
	<polyline class="st0" points="87.05,120.36 98.15,131.46 87.05,142.57 	"/>
	<circle class="st0" cx="100" cy="88.9" r="12.95"/>
	<path class="st0" d="M62.99,84.54c-3.51,4.57-5.55,9.84-5.55,15.46c0,5.89,2.02,11.38,5.55,16.1c6.89,9.19,19.63,15.37,35.16,15.37
		"/>
	<path class="st0" d="M137.01,84.54c3.51,4.57,5.55,9.84,5.55,15.46c0,5.63-2.03,10.91-5.55,15.49
		c-5.29,6.88-13.95,12.16-24.36,14.55"/>
</g>
</svg>
