<?xml version="1.0" encoding="utf-8"?>
<!-- Generator: Adobe Illustrator 23.0.1, SVG Export Plug-In . SVG Version: 6.00 Build 0)  -->
<svg version="1.1" id="Layer_1" xmlns="http://www.w3.org/2000/svg" xmlns:xlink="http://www.w3.org/1999/xlink" x="0px" y="0px"
	 viewBox="0 0 200 200" style="enable-background:new 0 0 200 200;" xml:space="preserve">
<style type="text/css">
	.st0{fill:none;stroke:#9BF2CA;stroke-width:2.5;stroke-linecap:round;stroke-linejoin:round;stroke-miterlimit:10;}
</style>
<g>
	<path class="st0" d="M147.03,94.77c0,6.97,0,27.87,0,27.87c0,1.92-1.56,3.48-3.48,3.48H56.46c-1.92,0-3.48-1.56-3.48-3.48V66.91
		c0-1.92,1.56-3.48,3.48-3.48h6.97"/>
	<rect x="84.32" y="126.13" class="st0" width="31.35" height="13.93"/>
	<rect x="77.36" y="140.06" class="st0" width="45.28" height="6.97"/>
	<line class="st0" x1="52.97" y1="115.68" x2="147.03" y2="115.68"/>
	<path class="st0" d="M101.74,105.23h-41.8l0,0c0-9.62,7.8-17.42,17.42-17.42h6.97C93.94,87.81,101.74,95.61,101.74,105.23
		L101.74,105.23z"/>
	<path class="st0" d="M112.19,77.36v3.48c0,3.85,3.12,6.97,6.97,6.97h20.9c3.85,0,6.97-3.12,6.97-6.97v-20.9
		c0-3.85-3.12-6.97-6.97-6.97h-20.9c-3.85,0-6.97,3.12-6.97,6.97v6.97h-10.45L112.19,77.36z"/>
	<circle class="st0" cx="80.84" cy="68.65" r="12.19"/>
	<line class="st0" x1="119.16" y1="59.94" x2="140.06" y2="59.94"/>
	<line class="st0" x1="119.16" y1="66.91" x2="140.06" y2="66.91"/>
	<line class="st0" x1="119.16" y1="73.87" x2="140.06" y2="73.87"/>
	<line class="st0" x1="119.16" y1="80.84" x2="129.61" y2="80.84"/>
</g>
</svg>
