<?xml version="1.0" encoding="utf-8"?>
<!-- Generator: Adobe Illustrator 24.0.1, SVG Export Plug-In . SVG Version: 6.00 Build 0)  -->
<svg version="1.1" id="Capa_1" xmlns="http://www.w3.org/2000/svg" xmlns:xlink="http://www.w3.org/1999/xlink" x="0px" y="0px"
	 viewBox="0 0 512 512" style="enable-background:new 0 0 512 512;" xml:space="preserve">
<style type="text/css">
	.st0{fill:#F9C300;}
	.st1{fill:#FFFFFF;}
</style>
<circle class="st0" cx="257.48" cy="257.44" r="159.65"/>
<g>
	<g>
		<g>
			<path class="st1" d="M256,79.35c-97.41,0-176.65,79.24-176.65,176.65S158.59,432.65,256,432.65S432.65,353.4,432.65,256
				S353.41,79.35,256,79.35z M256,405.29c-82.31,0-149.29-66.97-149.29-149.29S173.69,106.71,256,106.71S405.29,173.68,405.29,256
				S338.32,405.29,256,405.29z"/>
		</g>
	</g>
	<g>
		<g>
			<path class="st1" d="M324.42,241.09h-54.73v-54.73c0-7.55-6.12-13.68-13.68-13.68c-7.57,0-13.68,6.13-13.68,13.68v54.73h-54.73
				c-7.57,0-13.68,6.13-13.68,13.68c0,7.55,6.12,13.68,13.68,13.68h54.73v54.73c0,7.55,6.12,13.68,13.68,13.68
				c7.57,0,13.68-6.13,13.68-13.68v-54.73h54.73c7.57,0,13.68-6.13,13.68-13.68C338.1,247.22,331.98,241.09,324.42,241.09z"/>
		</g>
	</g>
</g>
</svg>
